<?xml version="1.0" encoding="UTF-8" standalone="no"?>
<!-- Created with Inkscape (http://www.inkscape.org/) -->

<svg
   width="3mm"
   height="3mm"
   viewBox="0 0 3 3"
   version="1.1"
   id="svg441"
   sodipodi:docname="cge_logo_3x3mm.svg"
   inkscape:version="1.2.1 (9c6d41e, 2022-07-14)"
   inkscape:export-filename="cge_logo_square_1200x1200.png"
   inkscape:export-xdpi="10160"
   inkscape:export-ydpi="10160"
   xmlns:inkscape="http://www.inkscape.org/namespaces/inkscape"
   xmlns:sodipodi="http://sodipodi.sourceforge.net/DTD/sodipodi-0.dtd"
   xmlns="http://www.w3.org/2000/svg"
   xmlns:svg="http://www.w3.org/2000/svg">
  <sodipodi:namedview
     id="namedview443"
     pagecolor="#ffffff"
     bordercolor="#666666"
     borderopacity="1.0"
     inkscape:showpageshadow="2"
     inkscape:pageopacity="0.0"
     inkscape:pagecheckerboard="0"
     inkscape:deskcolor="#d1d1d1"
     inkscape:document-units="mm"
     showgrid="true"
     inkscape:zoom="60.413194"
     inkscape:cx="5.7189494"
     inkscape:cy="5.6858441"
     inkscape:window-width="1496"
     inkscape:window-height="905"
     inkscape:window-x="0"
     inkscape:window-y="34"
     inkscape:window-maximized="0"
     inkscape:current-layer="g24415">
    <inkscape:grid
       type="xygrid"
       id="grid788"
       originx="0"
       originy="0"
       empspacing="2"
       spacingx="0.074999998"
       spacingy="0.074999998"
       units="mm"
       dotted="false" />
  </sodipodi:namedview>
  <defs
     id="defs438" />
  <g
     inkscape:label="Round Background"
     inkscape:groupmode="layer"
     id="g18577"
     style="display:none;fill:#1d1f21;fill-opacity:1;stroke:#1d1f21;stroke-opacity:1">
    <circle
       style="fill:#1d1f21;fill-opacity:1;stroke:#1d1f21;stroke-width:0.15;stroke-linecap:round;stroke-linejoin:round;stroke-dasharray:none;stroke-opacity:1;paint-order:normal"
       id="path18633"
       cx="1.4999999"
       cy="1.4999999"
       r="1.425" />
  </g>
  <g
     inkscape:label="Round Background (BW light)"
     inkscape:groupmode="layer"
     id="g24415"
     style="display:none;fill:#1d1f21;fill-opacity:1;stroke:#1d1f21;stroke-opacity:1">
    <circle
       style="fill:#ffffff;fill-opacity:1;stroke:#000000;stroke-width:0.15;stroke-linecap:round;stroke-linejoin:round;stroke-dasharray:none;stroke-opacity:1;paint-order:normal"
       id="circle24413"
       cx="1.4999999"
       cy="1.4999999"
       r="1.425" />
  </g>
  <g
     inkscape:label="Round Background (BW dark)"
     inkscape:groupmode="layer"
     id="g24419"
     style="display:none;fill:#1d1f21;fill-opacity:1;stroke:#1d1f21;stroke-opacity:1">
    <circle
       style="fill:#000000;fill-opacity:1;stroke:#000000;stroke-width:0.15;stroke-linecap:round;stroke-linejoin:round;stroke-dasharray:none;stroke-opacity:1;paint-order:normal"
       id="circle24417"
       cx="1.4999999"
       cy="1.4999999"
       r="1.425"
       inkscape:label="circle24417" />
  </g>
  <g
     inkscape:label="Square Background"
     inkscape:groupmode="layer"
     id="layer1"
     style="display:inline">
    <path
       style="display:inline;fill:#1d1f21;fill-opacity:1;stroke:#1d1f21;stroke-width:0.15;stroke-linecap:round;stroke-linejoin:round;stroke-dasharray:none;stroke-opacity:1"
       d="M 0.07499998,0.07499999 H 2.9249999 V 2.9249999 H 0.07499998 V 0.07499999"
       id="path5153"
       sodipodi:nodetypes="ccccc"
       inkscape:label="path5153" />
  </g>
  <g
     inkscape:label="Square Background (BW light)"
     inkscape:groupmode="layer"
     id="g18542"
     style="display:none;fill:#ffffff;fill-opacity:1">
    <path
       style="display:inline;fill:#ffffff;fill-opacity:1;stroke:#000000;stroke-width:0.15;stroke-linecap:round;stroke-linejoin:round;stroke-dasharray:none;stroke-opacity:1"
       d="M 0.07499998,0.07499999 H 2.9249999 V 2.9249999 H 0.07499998 V 0.07499999"
       id="path18540"
       sodipodi:nodetypes="ccccc" />
  </g>
  <g
     inkscape:label="Square Background (BW dark)"
     inkscape:groupmode="layer"
     id="g18509"
     style="display:none;fill:#000000;fill-opacity:1;stroke:#000000;stroke-opacity:1">
    <path
       style="fill:#000000;fill-opacity:1;stroke:#000000;stroke-width:0.15;stroke-linecap:round;stroke-linejoin:round;stroke-dasharray:none;stroke-opacity:1"
       d="M 0.07499998,0.07499999 H 2.9249999 V 2.9249999 H 0.07499998 V 0.07499999"
       id="path18507"
       sodipodi:nodetypes="ccccc"
       inkscape:label="path18507" />
  </g>
  <g
     inkscape:groupmode="layer"
     id="layer2"
     inkscape:label="C"
     style="display:inline">
    <path
       style="fill:none;stroke:#8abeb7;stroke-width:0.15;stroke-linecap:round;stroke-linejoin:round;stroke-dasharray:none;stroke-opacity:1"
       d="M 1.725,0.44999999 H 0.97499996 L 0.74999994,0.67499998 V 1.275 L 0.97499996,1.5 H 1.425"
       id="path8066"
       sodipodi:nodetypes="cccccc" />
  </g>
  <g
     inkscape:groupmode="layer"
     id="g24286"
     inkscape:label="C (BW light)"
     style="display:none">
    <path
       style="fill:none;stroke:#000000;stroke-width:0.15;stroke-linecap:round;stroke-linejoin:round;stroke-dasharray:none;stroke-opacity:1"
       d="M 1.725,0.44999999 H 0.97499996 L 0.74999994,0.67499998 V 1.275 L 0.97499996,1.5 H 1.425"
       id="path24284"
       sodipodi:nodetypes="cccccc" />
  </g>
  <g
     inkscape:groupmode="layer"
     id="g24290"
     inkscape:label="C (BW dark)"
     style="display:none">
    <path
       style="fill:none;stroke:#ffffff;stroke-width:0.15;stroke-linecap:round;stroke-linejoin:round;stroke-dasharray:none;stroke-opacity:1"
       d="M 1.725,0.44999999 H 0.97499996 L 0.74999994,0.67499998 V 1.275 L 0.97499996,1.5 H 1.425"
       id="path24288"
       sodipodi:nodetypes="cccccc" />
  </g>
  <g
     inkscape:groupmode="layer"
     id="layer3"
     inkscape:label="GND Symbol"
     style="display:inline;stroke:#c5c8c6;stroke-width:0.15;stroke-linecap:round;stroke-linejoin:round;stroke-dasharray:none;stroke-opacity:1">
    <path
       style="fill:none;stroke:#c5c8c6;stroke-width:0.15;stroke-linecap:round;stroke-linejoin:round;stroke-dasharray:none;stroke-opacity:1"
       d="M 1.2,1.05 H 1.725 V 1.9499999"
       id="path8795"
       sodipodi:nodetypes="ccc" />
    <path
       style="display:inline;fill:none;stroke:#c5c8c6;stroke-width:0.15;stroke-linecap:round;stroke-linejoin:round;stroke-dasharray:none;stroke-opacity:1"
       d="M 1.5,2.5499999 H 1.9499999"
       id="path15456"
       sodipodi:nodetypes="cc" />
    <path
       style="display:inline;fill:none;stroke:#c5c8c6;stroke-width:0.15;stroke-linecap:round;stroke-linejoin:round;stroke-dasharray:none;stroke-opacity:1"
       d="M 1.2,1.9499999 H 2.2499999"
       id="path11071"
       sodipodi:nodetypes="cc" />
    <path
       style="display:inline;fill:none;stroke:#c5c8c6;stroke-width:0.15;stroke-linecap:round;stroke-linejoin:round;stroke-dasharray:none;stroke-opacity:1"
       d="M 1.35,2.2499999 H 2.0999999"
       id="path12525"
       sodipodi:nodetypes="cc" />
  </g>
  <g
     inkscape:groupmode="layer"
     id="g24300"
     inkscape:label="GND Symbol (BW light)"
     style="display:none;stroke:#000000;stroke-width:0.15;stroke-linecap:round;stroke-linejoin:round;stroke-dasharray:none;stroke-opacity:1">
    <path
       style="fill:none;stroke:#000000;stroke-width:0.15;stroke-linecap:round;stroke-linejoin:round;stroke-dasharray:none;stroke-opacity:1"
       d="M 1.2,1.05 H 1.725 V 1.9499999"
       id="path24292"
       sodipodi:nodetypes="ccc" />
    <path
       style="display:inline;fill:none;stroke:#000000;stroke-width:0.15;stroke-linecap:round;stroke-linejoin:round;stroke-dasharray:none;stroke-opacity:1"
       d="M 1.5,2.5499999 H 1.9499999"
       id="path24294"
       sodipodi:nodetypes="cc" />
    <path
       style="display:inline;fill:none;stroke:#000000;stroke-width:0.15;stroke-linecap:round;stroke-linejoin:round;stroke-dasharray:none;stroke-opacity:1"
       d="M 1.2,1.9499999 H 2.2499999"
       id="path24296"
       sodipodi:nodetypes="cc" />
    <path
       style="display:inline;fill:none;stroke:#000000;stroke-width:0.15;stroke-linecap:round;stroke-linejoin:round;stroke-dasharray:none;stroke-opacity:1"
       d="M 1.35,2.2499999 H 2.0999999"
       id="path24298"
       sodipodi:nodetypes="cc" />
  </g>
  <g
     inkscape:groupmode="layer"
     id="g24310"
     inkscape:label="GND Symbol (BW dark)"
     style="display:none;stroke:#ffffff;stroke-width:0.15;stroke-linecap:round;stroke-linejoin:round;stroke-dasharray:none;stroke-opacity:1">
    <path
       style="fill:none;stroke:#ffffff;stroke-width:0.15;stroke-linecap:round;stroke-linejoin:round;stroke-dasharray:none;stroke-opacity:1"
       d="M 1.2,1.05 H 1.725 V 1.9499999"
       id="path24302"
       sodipodi:nodetypes="ccc" />
    <path
       style="display:inline;fill:none;stroke:#ffffff;stroke-width:0.15;stroke-linecap:round;stroke-linejoin:round;stroke-dasharray:none;stroke-opacity:1"
       d="M 1.5,2.5499999 H 1.9499999"
       id="path24304"
       sodipodi:nodetypes="cc" />
    <path
       style="display:inline;fill:none;stroke:#ffffff;stroke-width:0.15;stroke-linecap:round;stroke-linejoin:round;stroke-dasharray:none;stroke-opacity:1"
       d="M 1.2,1.9499999 H 2.2499999"
       id="path24306"
       sodipodi:nodetypes="cc" />
    <path
       style="display:inline;fill:none;stroke:#ffffff;stroke-width:0.15;stroke-linecap:round;stroke-linejoin:round;stroke-dasharray:none;stroke-opacity:1"
       d="M 1.35,2.2499999 H 2.0999999"
       id="path24308"
       sodipodi:nodetypes="cc" />
  </g>
  <g
     inkscape:groupmode="layer"
     id="layer4"
     inkscape:label="F.SilkS"
     style="display:none">
    <path
       id="path30216"
       style="color:#000000;fill:#000000;stroke-width:0.15;stroke-linecap:round;stroke-linejoin:round;-inkscape-stroke:none"
       d="M 0.07441406,0 A 0.075,0.075 0 0 0 0.0217041,0.0217041 0.075,0.075 0 0 0 0,0.07441406 V 2.9259196 a 0.0750075,0.0750075 0 0 0 0.07441406,0.073897 H 2.9259196 a 0.0750075,0.0750075 0 0 0 0.073897,-0.073897 V 0.07441406 A 0.0750075,0.0750075 0 0 0 2.9259196,0 Z M 0.97461751,0.3751709 H 1.7244425 a 0.075,0.075 0 0 1 0.076481,0.0738973 0.075,0.075 0 0 1 -0.076481,0.0764811 H 1.0056234 L 0.8242391,0.70693359 V 1.2443685 l 0.1813843,0.1813843 h 0.4201294 a 0.075,0.075 0 0 1 0.074414,0.074414 0.075,0.075 0 0 1 -0.074414,0.073897 H 0.97461751 a 0.0750075,0.0750075 0 0 1 -0.05271,-0.021187 L 0.69711507,1.3280843 a 0.0750075,0.0750075 0 0 1 -0.0211873,-0.05271 V 0.67592773 a 0.0750075,0.0750075 0 0 1 0.0211873,-0.054777 L 0.92190755,0.39635824 a 0.0750075,0.0750075 0 0 1 0.05271,-0.0211873 z M 1.19941,0.97461751 h 0.5250325 a 0.0750075,0.0750075 0 0 1 0.076481,0.0759644 V 1.874821 h 0.4490682 a 0.075,0.075 0 0 1 0.074414,0.074414 0.075,0.075 0 0 1 -0.074414,0.075964 H 1.7244425 1.19941 A 0.075,0.075 0 0 1 1.1249959,1.949235 0.075,0.075 0 0 1 1.19941,1.874821 H 1.6505452 V 1.1249959 H 1.19941 A 0.075,0.075 0 0 1 1.1249959,1.0505819 0.075,0.075 0 0 1 1.19941,0.97461751 Z M 1.3497884,2.1755778 h 0.749825 a 0.075,0.075 0 0 1 0.075964,0.074414 0.075,0.075 0 0 1 -0.075964,0.074414 h -0.749825 a 0.075,0.075 0 0 1 -0.074414,-0.074414 0.075,0.075 0 0 1 0.074414,-0.074414 z M 1.5001668,2.4747843 H 1.949235 a 0.075,0.075 0 0 1 0.075964,0.075964 0.075,0.075 0 0 1 -0.075964,0.074414 H 1.5001668 a 0.075,0.075 0 0 1 -0.074414,-0.074414 0.075,0.075 0 0 1 0.074414,-0.075964 z" />
  </g>
</svg>
